mtllib square.mtl
g MODEL_CUBE_PART_1_N3D

# Vertex Positions:
v -5 0 5
v 5 0 5
v 5 10 5
v -5 10 5
v 5 10 -5
v -5 10 -5
v 5 0 -5
v -5 0 -5

# Vertex Texture Coordinates:
vt 0.37502 0.001 
vt 0.62453 0.001 
vt 0.62453 0.2505 
vt 0.37502 0.2505 
vt 0.62453 0.5 
vt 0.37502 0.5 
vt 0.62453 0.7495 
vt 0.37502 0.7495 
vt 0.62453 0.999 
vt 0.37502 0.999 
vt 0.87403 0.001 
vt 0.87403 0.2505 
vt 0.12552 0.001 
vt 0.12552 0.2505 

# Vertex Surface Normals:
vn 0 0 2
vn 0 0 2
vn 0 0 2
vn 0 0 2
vn 0 2 0
vn 0 2 0
vn 0 2 0
vn 0 2 0
vn 0 0 -2
vn 0 0 -2
vn 0 0 -2
vn 0 0 -2
vn 0 -2 0
vn 0 -2 0
vn 0 -2 0
vn 0 -2 0
vn 2 0 0
vn 2 0 0
vn 2 0 0
vn 2 0 0
vn -2 0 0
vn -2 0 0
vn -2 0 0
vn -2 0 0

# Faces:
usemtl MODEL_CUBE_MATERIAL_1
f 1/1/1 2/2/2 3/3/3 4/4/4
f 4/4/5 3/3/6 5/5/7 6/6/8
f 6/6/9 5/5/10 7/7/11 8/8/12
f 8/8/13 7/7/14 2/9/15 1/10/16
f 2/2/17 7/11/18 5/12/19 3/3/20
f 8/13/21 1/1/22 4/4/23 6/14/24
